HIERARCHY
ROOT Hips
{
  OFFSET -187.679 86.5976 -156.378
  CHANNELS 6 Xposition Yposition Zposition Zrotation Xrotation Yrotation
  JOINT LeftUpLeg
  {
    OFFSET 8.64259 1.95398 -2.38835
    CHANNELS 3 Zrotation Xrotation Yrotation
    JOINT LeftLeg
    {
      OFFSET 43.7702 0 0
      CHANNELS 3 Zrotation Xrotation Yrotation
      JOINT LeftFoot
      {
        OFFSET 40.6238 0 0
        CHANNELS 3 Zrotation Xrotation Yrotation
        JOINT LeftToeBase
        {
          OFFSET 12.7242 0 0
          CHANNELS 3 Zrotation Xrotation Yrotation
          End Site
          {
            OFFSET 0 0 0
          }
        }
      }
    }
  }
  JOINT RightUpLeg
  {
    OFFSET -8.2249 1.95398 -2.59336
    CHANNELS 3 Zrotation Xrotation Yrotation
    JOINT RightLeg
    {
      OFFSET 43.5653 0 0
      CHANNELS 3 Zrotation Xrotation Yrotation
      JOINT RightFoot
      {
        OFFSET 40.6238 0 0
        CHANNELS 3 Zrotation Xrotation Yrotation
        JOINT RightToeBase
        {
          OFFSET 12.7242 0 0
          CHANNELS 3 Zrotation Xrotation Yrotation
          End Site
          {
            OFFSET 0 0 0
          }
        }
      }
    }
  }
  JOINT Spine
  {
    OFFSET 0.165834 0.87714 6.61349
    CHANNELS 3 Zrotation Xrotation Yrotation
    JOINT Spine1
    {
      OFFSET 7.38963 1.71661e-005 0
      CHANNELS 3 Zrotation Xrotation Yrotation
      JOINT Spine2
      {
        OFFSET 11.9445 1.14441e-005 0
        CHANNELS 3 Zrotation Xrotation Yrotation
        JOINT Spine3
        {
          OFFSET 14.7254 4.19617e-005 0
          CHANNELS 3 Zrotation Xrotation Yrotation
          JOINT Spine4
          {
            OFFSET 10.9679 0 0
            CHANNELS 3 Zrotation Xrotation Yrotation
            JOINT RightShoulder
            {
              OFFSET 2.46616 -1.6653 3.69651
              CHANNELS 3 Zrotation Xrotation Yrotation
              JOINT RightArm
              {
                OFFSET 13.0012 0 0
                CHANNELS 3 Zrotation Xrotation Yrotation
                JOINT RightForeArm
                {
                  OFFSET 28.7848 1.52588e-005 0
                  CHANNELS 3 Zrotation Xrotation Yrotation
                  JOINT RightHand
                  {
                    OFFSET 26.5688 1.52588e-005 0
                    CHANNELS 3 Zrotation Xrotation Yrotation
                    End Site
                    {
                      OFFSET 0 0 0
                    }
                  }
                }
              }
            }
            JOINT LeftShoulder
            {
              OFFSET 2.38034 -1.29275 -3.7523
              CHANNELS 3 Zrotation Xrotation Yrotation
              JOINT LeftArm
              {
                OFFSET 16.3182 6.10352e-005 0
                CHANNELS 3 Zrotation Xrotation Yrotation
                JOINT LeftForeArm
                {
                  OFFSET 27.0901 0 0
                  CHANNELS 3 Zrotation Xrotation Yrotation
                  JOINT LeftHand
                  {
                    OFFSET 24.5451 1.52588e-005 0
                    CHANNELS 3 Zrotation Xrotation Yrotation
                    End Site
                    {
                      OFFSET 0 0 0
                    }
                  }
                }
              }
            }
            JOINT Neck
            {
              OFFSET 5.0226 -0.0266342 0
              CHANNELS 3 Zrotation Xrotation Yrotation
              JOINT Head
              {
                OFFSET 6.69363 2.86102e-005 0
                CHANNELS 3 Zrotation Xrotation Yrotation
                End Site
                {
                  OFFSET 0 0 0
                }
              }
            }
          }
        }
      }
    }
  }
}
MOTION
Frames:	12
Frame Time:	0.0416667
32.7431 101.306 30.0359 -148.957 -79.1104 -150.212 -174.889 -3.65509 87.6132 -24.6305 18.7939 7.96106 75.0835 6.39326 -2.41544 12.142 -8.04124 2.52851 172.208 -7.84937 86.7733 -12.851 -3.7209 0.560153 68.5902 -4.34925 -0.204601 24.2996 -1.52255 2.51027 0.223088 7.6156 -89.7671 11.6416 0.552939 0.406582 -0.029289 0.570304 0.381835 -22.5645 0.40518 0.553962 -2.55187 0.405189 0.553958 87.3997 -49.251 -104.789 28.739 -26.7833 -11.7644 -16.6693 -18.2076 -18.3727 -11.7739 -0.472791 -0.339751 -89.3928 -46.6391 79.1452 -26.8875 27.5316 -10.5224 8.07666 -6.71609 -12.1984 -0.184829 -0.0504188 -2.28506 7.41323 -0.157443 -2.24695 1.83872 0.434237 3.29303 
32.6803 101.141 29.723 -146.313 -79.8561 -147.618 -175.448 -2.28492 87.1076 -25.5961 19.4018 8.54988 74.9259 6.76231 -0.768691 13.0539 -8.05248 3.36995 172.808 -7.07303 87.1513 -12.6996 -7.34785 -0.0656675 68.6697 -4.34082 -2.88215 24.3932 -0.90354 0.683614 0.267784 7.45871 -89.7431 11.955 0.653612 0.441862 0.284202 0.672432 0.412663 -22.2512 0.490607 0.617874 -2.23853 0.4906 0.617868 87.2177 -49.5681 -104.977 29.0041 -26.9576 -10.8862 -16.5999 -15.7502 -19.1097 -11.7987 -0.165893 -3.48597 -89.7303 -46.7096 78.6378 -26.9777 27.432 -9.77738 8.47147 -5.20395 -12.5153 -3.13637 -0.0968489 -2.41937 6.07213 -0.258767 -2.82807 2.68985 0.489222 4.24234 
32.6281 101.143 29.623 -147.318 -79.5704 -148.56 -175.306 -2.5835 87.2563 -25.5786 19.4279 8.47094 75.2133 6.90822 -0.733883 12.9781 -8.17945 3.54944 172.827 -7.40491 87.2345 -12.614 -7.3419 -0.0558738 68.7285 -4.36987 -3.10823 24.2268 -1.01304 0.932006 0.298027 7.50907 -89.7417 11.8543 0.714256 0.43882 0.183471 0.732881 0.40695 -22.3521 0.549354 0.633195 -2.33947 0.549357 0.633196 87.2112 -49.6313 -104.969 28.9028 -27.0093 -10.929 -16.8315 -16.2949 -19.4018 -11.2577 -0.215714 -2.85009 -89.8319 -46.4721 78.4266 -27.0559 27.3744 -9.92154 8.61063 -4.90457 -12.5461 -3.7822 -0.0964068 -3.55123 6.04395 -0.202625 -2.50766 3.03994 0.462877 3.58756 
32.584 101.14 29.5406 -147.195 -79.4988 -148.498 -175.373 -2.65005 87.1825 -25.4757 19.3663 8.54023 75.0311 6.84425 -0.6516 13.1582 -7.93714 3.24106 172.838 -7.35929 87.2252 -12.7386 -7.65 -0.10221 68.7128 -4.34348 -3.20821 24.1027 -0.874976 0.453811 0.302524 7.51034 -89.7662 11.852 0.711702 0.390243 0.181176 0.728185 0.358537 -22.3546 0.561514 0.586105 -2.34194 0.56151 0.586089 87.6106 -49.3246 -104.446 28.9931 -27.0421 -10.9515 -17.4817 -17.7956 -20.0385 -10.245 -0.127208 -3.72835 -89.9691 -47.164 78.3726 -26.559 27.2927 -9.79993 8.54973 -5.34246 -12.8369 -3.49737 -0.0969157 -3.30751 6.21606 -0.2168 -2.20066 2.50678 0.3845 3.75992 
32.5872 101.148 29.4448 -147.261 -79.5758 -148.586 -175.491 -2.51811 87.0766 -25.5257 19.2839 8.6621 75.1329 6.8321 -0.838303 12.8513 -8.18664 3.44758 172.779 -7.07288 87.1568 -13.024 -7.15345 -0.0251493 68.7062 -4.335 -2.66186 24.351 -0.910722 0.68423 0.276638 7.5017 -89.7679 11.8693 0.65942 0.392288 0.198419 0.67604 0.362883 -22.3371 0.511031 0.572337 -2.32449 0.511028 0.572333 87.7653 -49.1598 -104.255 29.2117 -26.9905 -11.1002 -18.1379 -19.4299 -20.5158 -9.12387 -0.111636 -3.76287 -89.9154 -47.3449 78.4963 -26.2795 27.5743 -9.95078 8.40204 -5.65601 -12.6491 -3.67458 -0.0964805 -3.34494 6.68918 -0.178358 -2.06577 2.12918 0.394433 3.81062 
32.5472 101.145 29.4437 -147.486 -79.3581 -148.803 -175.381 -2.72765 87.1565 -25.5168 19.3493 8.56463 75.0095 6.84801 -0.579793 13.1636 -7.92334 3.21889 172.852 -7.35728 87.2075 -12.8914 -7.3234 -0.111692 68.7619 -4.35759 -2.92984 24.1564 -1.0089 0.884636 0.289027 7.52485 -89.7694 11.8229 0.683265 0.387088 0.152103 0.699637 0.356631 -22.3835 0.535344 0.574541 -2.37091 0.535334 0.57453 87.6622 -49.1705 -104.41 29.3074 -26.8636 -11.0958 -17.8175 -19.0276 -20.1898 -8.87145 -0.0637309 -4.38937 -89.9233 -47.1541 78.4409 -26.4823 27.5264 -10.0059 8.44652 -5.52245 -12.6562 -3.66227 -0.0952961 -3.41337 6.70703 -0.242022 -2.223 2.44972 0.381509 3.97358 
32.5206 101.154 29.4187 -147.449 -79.2706 -148.81 -175.348 -2.77341 87.1918 -25.4894 19.1385 8.51091 75.0971 6.73436 -1.07046 12.986 -8.1965 3.59071 172.83 -7.45238 87.1753 -12.8346 -7.48228 -0.133736 68.8725 -4.39827 -3.103 23.9158 -1.01777 0.791635 0.269651 7.52542 -89.7547 11.8217 0.651657 0.4197 0.150886 0.669494 0.390614 -22.3846 0.495395 0.596154 -2.37191 0.49539 0.596146 87.2747 -49.3386 -104.955 29.1208 -26.493 -11.312 -17.7107 -19.1875 -19.698 -9.36496 -0.0719916 -4.31421 -89.7238 -47.0371 78.7219 -26.6235 27.4533 -9.93804 8.437 -5.6865 -12.702 -3.84913 -0.0935222 -3.61146 6.77213 -0.189401 -2.2632 2.37493 0.442456 4.03793 
32.4759 101.159 29.4076 -148.168 -79.1823 -149.406 -175.221 -2.88998 87.3909 -25.5918 19.5304 8.51378 75.1288 6.85415 -0.776088 12.9709 -8.13392 3.45421 172.908 -7.6135 87.3144 -12.8243 -7.04438 -0.107756 68.7702 -4.37792 -2.80153 24.0384 -0.980226 0.739757 0.254373 7.54917 -89.7638 11.7744 0.616954 0.405717 0.103561 0.634207 0.378162 -22.4318 0.466496 0.572374 -2.41919 0.466488 0.572367 87.3266 -49.3286 -104.879 28.9641 -26.9002 -11.2755 -17.8931 -19.4636 -20.1958 -9.68147 -0.167409 -3.12576 -89.5788 -47.0681 78.9523 -26.4321 27.532 -10.1831 8.36954 -5.87259 -12.5945 -3.7993 -0.0913759 -3.46696 6.96679 -0.102597 -2.0614 2.52894 0.47413 3.55612 
32.4846 101.133 29.3649 -147.484 -79.1011 -148.807 -175.391 -2.87173 87.1658 -25.5619 19.032 8.61975 75.0425 6.74616 -0.937471 13.1892 -7.91015 3.216 172.799 -7.36471 87.1834 -13.1923 -7.81876 -0.111185 68.6337 -4.27109 -3.07096 24.4503 -0.800716 0.398252 0.294776 7.51274 -89.7678 11.8472 0.695487 0.388753 0.176383 0.711917 0.357772 -22.3593 0.546492 0.5798 -2.34667 0.546496 0.579805 87.5743 -49.0095 -104.59 29.4421 -26.9493 -11.0206 -17.8119 -19.0033 -20.2102 -8.98006 -0.0844873 -4.11465 -89.9229 -47.2397 78.461 -26.4898 27.334 -9.91335 8.43736 -5.74433 -12.6871 -3.88237 -0.0889674 -3.57505 6.38482 -0.212688 -1.73247 2.73792 0.299554 3.57337 
32.4097 101.158 29.4551 -149.108 -78.6044 -150.105 -175.022 -3.38973 87.6887 -25.8928 19.5 8.59211 75.2989 6.90699 -0.814456 12.8511 -8.17399 3.42293 172.947 -8.30927 87.4792 -12.6961 -7.27702 -0.122693 68.4994 -4.3056 -2.82719 24.4167 -0.910919 0.717269 0.289048 7.55294 -89.8258 11.7672 0.656729 0.277749 0.0964476 0.66832 0.248561 -22.4395 0.542888 0.462281 -2.42681 0.542895 0.462281 87.8495 -48.7652 -104.235 29.4695 -27.0892 -11.3211 -17.4897 -18.5052 -19.831 -9.01216 -0.0912856 -4.03446 -89.8821 -47.5692 78.5982 -26.1244 27.5432 -10.1024 8.31392 -6.01413 -12.5846 -4.09414 -0.0865001 -3.59065 6.23126 0.0302848 -1.28911 2.69409 0.444042 3.4964 
32.4185 101.128 29.447 -148.656 -78.3688 -150.029 -175.235 -3.68813 87.208 -25.5873 18.9067 8.55687 75.1897 6.79401 -1.03526 13.0879 -8.1163 3.52676 172.526 -7.96702 86.9682 -13.574 -8.6355 -0.110262 68.8988 -4.33071 -3.93495 24.4216 -1.01461 1.03541 0.300159 7.52203 -89.7535 11.8285 0.71286 0.415658 0.15769 0.730466 0.383875 -22.378 0.55498 0.610681 -2.36533 0.554986 0.610685 87.3797 -49.1935 -104.836 29.4341 -26.8116 -10.9717 -17.1728 -17.0311 -19.7197 -9.86896 -0.2091 -2.65404 -89.638 -47.0438 78.8555 -26.4365 27.5309 -10.1676 8.37685 -5.77495 -12.5601 -4.2886 -0.0840992 -3.97205 5.79484 0.075682 -1.87005 2.69242 0.611742 3.88229 
32.3304 101.109 29.5327 -149.152 -78.105 -150.608 -175.034 -3.98743 87.3408 -25.6976 19.317 8.35563 75.1738 6.93079 -0.679162 13.1263 -8.0964 3.52334 172.558 -8.205 86.9292 -13.8129 -8.34105 -0.210419 69.1685 -4.42212 -3.60853 24.2752 -0.956376 0.785594 0.298832 7.47589 -89.7614 11.9208 0.706629 0.399908 0.250038 0.723553 0.368413 -22.2857 0.55377 0.593793 -2.27301 0.553774 0.593789 87.633 -49.0271 -104.495 29.5129 -26.7907 -11.2931 -16.9157 -16.9653 -19.1659 -10.0954 -0.176557 -3.09127 -89.916 -47.1443 78.45 -26.454 27.7115 -9.87718 8.01308 -6.98715 -12.8623 -3.66135 -0.0820352 -3.68295 5.04089 0.321312 -1.45141 2.46718 0.751371 3.76667 
